<svg width="65" height="64" viewBox="0 0 65 64" fill="none" xmlns="http://www.w3.org/2000/svg">
<rect x="0.5" width="64" height="64" rx="32" fill="#006837"/>
<g clip-path="url(#clip0_1253_5653)">
<path d="M44.5 30.0049H43.5V18.0049H41.5V30.0049H40.5C39.9697 30.0054 39.4613 30.2163 39.0863 30.5912C38.7114 30.9662 38.5005 31.4746 38.5 32.0049V34.0049C38.5006 34.5351 38.7115 35.0435 39.0865 35.4184C39.4614 35.7934 39.9698 36.0043 40.5 36.0049H41.5V46.0049H43.5V36.0049H44.5C45.0302 36.0042 45.5385 35.7932 45.9134 35.4183C46.2883 35.0434 46.4993 34.5351 46.5 34.0049V32.0049C46.4994 31.4746 46.2885 30.9663 45.9135 30.5913C45.5386 30.2164 45.0302 30.0055 44.5 30.0049ZM44.5 34.0049H40.5V32.0049H44.5V34.0049Z" fill="white"/>
<path d="M34.5 22.0049H33.5V18.0049H31.5V22.0049H30.5C29.9697 22.0054 29.4613 22.2163 29.0863 22.5912C28.7114 22.9662 28.5005 23.4746 28.5 24.0049V26.0049C28.5005 26.5352 28.7114 27.0436 29.0863 27.4185C29.4613 27.7935 29.9697 28.0044 30.5 28.0049H31.5V46.0049H33.5V28.0049H34.5C35.0303 28.0044 35.5387 27.7935 35.9136 27.4185C36.2886 27.0436 36.4995 26.5352 36.5 26.0049V24.0049C36.4995 23.4746 36.2886 22.9662 35.9136 22.5913C35.5387 22.2163 35.0303 22.0054 34.5 22.0049ZM34.5 26.0049H30.5V24.0049H34.5V26.0049Z" fill="white"/>
<path d="M24.5 36.0049H23.5V18.0049H21.5V36.0049H20.5C19.9698 36.0055 19.4614 36.2164 19.0865 36.5913C18.7115 36.9663 18.5006 37.4746 18.5 38.0049V40.0049C18.5006 40.5351 18.7115 41.0435 19.0865 41.4184C19.4614 41.7934 19.9698 42.0043 20.5 42.0049H21.5V46.0049H23.5V42.0049H24.5C25.0302 42.0043 25.5386 41.7934 25.9135 41.4184C26.2885 41.0435 26.4994 40.5351 26.5 40.0049V38.0049C26.4994 37.4746 26.2885 36.9663 25.9135 36.5913C25.5386 36.2164 25.0302 36.0055 24.5 36.0049ZM24.5 40.0049H20.5V38.0049H24.5V40.0049Z" fill="white"/>
</g>
<defs>
<clipPath id="clip0_1253_5653">
<rect width="32" height="32" fill="white" transform="translate(16.5 16)"/>
</clipPath>
</defs>
</svg>
