<svg width="65" height="64" viewBox="0 0 65 64" fill="none" xmlns="http://www.w3.org/2000/svg">
<rect x="0.5" width="64" height="64" rx="32" fill="#006837"/>
<g clip-path="url(#clip0_1253_5658)">
<path d="M41.3008 27.1382C40.8752 25.1195 39.7684 23.3086 38.1662 22.0089C36.5639 20.7093 34.5636 20 32.5005 20C30.4374 20 28.4371 20.7093 26.8348 22.0089C25.2326 23.3086 24.1258 25.1195 23.7002 27.1382C22.2362 27.4433 20.9212 28.2414 19.9747 29.3992C19.0283 30.5571 18.5077 32.0046 18.5 33.5V35C18.5 35.2652 18.6054 35.5196 18.7929 35.7071C18.9804 35.8947 19.2348 36 19.5 36H31.5C31.7652 36 32.0196 35.8947 32.2071 35.7071C32.3946 35.5196 32.5 35.2652 32.5 35C32.5 34.7348 32.3946 34.4805 32.2071 34.2929C32.0196 34.1054 31.7652 34 31.5 34H20.5V33.5034C20.5051 32.3735 20.9334 31.2864 21.7005 30.4567C22.4677 29.627 23.5179 29.115 24.644 29.0215L25.4595 28.9575L25.5586 28.1455C25.7659 26.4503 26.5863 24.8896 27.8651 23.7576C29.1439 22.6256 30.7927 22.0007 32.5005 22.0007C34.2083 22.0007 35.8571 22.6256 37.1359 23.7576C38.4147 24.8896 39.2351 26.4503 39.4424 28.1455L39.541 28.9575L40.3564 29.0215C41.5149 29.1128 42.5931 29.6492 43.3649 30.5181C44.1366 31.387 44.5419 32.5209 44.4958 33.6822C44.4497 34.8434 43.9558 35.9416 43.1176 36.7466C42.2794 37.5516 41.1621 38.0008 40 38H23.5C23.2348 38 22.9804 38.1054 22.7929 38.2929C22.6054 38.4805 22.5 38.7348 22.5 39C22.5 39.2652 22.6054 39.5196 22.7929 39.7071C22.9804 39.8947 23.2348 40 23.5 40H40C41.6104 40.001 43.1637 39.4037 44.3587 38.3241C45.5537 37.2446 46.305 35.7596 46.4671 34.1574C46.6291 32.5552 46.1903 30.9499 45.2357 29.6529C44.2811 28.3559 42.8788 27.4598 41.3008 27.1382Z" fill="white"/>
<path d="M35.5 42H19.5C18.9477 42 18.5 42.4477 18.5 43C18.5 43.5523 18.9477 44 19.5 44H35.5C36.0523 44 36.5 43.5523 36.5 43C36.5 42.4477 36.0523 42 35.5 42Z" fill="white"/>
</g>
<defs>
<clipPath id="clip0_1253_5658">
<rect width="32" height="32" fill="white" transform="translate(16.5 16)"/>
</clipPath>
</defs>
</svg>
