<svg width="65" height="64" viewBox="0 0 65 64" fill="none" xmlns="http://www.w3.org/2000/svg">
<rect x="0.5" width="64" height="64" rx="32" fill="#006837"/>
<g clip-path="url(#clip0_1253_5643)">
<path d="M26 31C26.2967 31 26.5867 31.088 26.8334 31.2528C27.08 31.4176 27.2723 31.6519 27.3858 31.926C27.4994 32.2001 27.5291 32.5017 27.4712 32.7926C27.4133 33.0836 27.2704 33.3509 27.0607 33.5607C26.8509 33.7704 26.5836 33.9133 26.2926 33.9712C26.0017 34.0291 25.7001 33.9994 25.426 33.8858C25.1519 33.7723 24.9176 33.58 24.7528 33.3334C24.588 33.0867 24.5 32.7967 24.5 32.5C24.5 32.1022 24.658 31.7206 24.9393 31.4393C25.2206 31.158 25.6022 31 26 31ZM26 29C25.3078 29 24.6311 29.2053 24.0555 29.5899C23.4799 29.9744 23.0313 30.5211 22.7664 31.1606C22.5015 31.8001 22.4322 32.5039 22.5673 33.1828C22.7023 33.8617 23.0356 34.4854 23.5251 34.9749C24.0146 35.4644 24.6383 35.7977 25.3172 35.9327C25.9961 36.0678 26.6999 35.9985 27.3394 35.7336C27.9789 35.4687 28.5256 35.0201 28.9101 34.4445C29.2947 33.8689 29.5 33.1922 29.5 32.5C29.5 31.5717 29.1313 30.6815 28.4749 30.0251C27.8185 29.3687 26.9283 29 26 29Z" fill="white"/>
<path d="M41.5 29.9998H33.5C32.9696 29.9998 32.4609 30.2105 32.0858 30.5856C31.7107 30.9606 31.5 31.4693 31.5 31.9998V37.9998H20.5V26.5998L32.5 20.1398L45.03 26.8798L45.97 25.1198L32.97 18.1198C32.8253 18.0427 32.6639 18.0024 32.5 18.0024C32.3361 18.0024 32.1747 18.0427 32.03 18.1198L19.03 25.1198C18.8703 25.2048 18.7367 25.3315 18.6434 25.4865C18.55 25.6415 18.5005 25.8189 18.5 25.9998V45.9998H20.5V39.9998H44.5V45.9998H46.5V34.9998C46.5 33.6737 45.9732 32.4019 45.0355 31.4642C44.0979 30.5266 42.8261 29.9998 41.5 29.9998ZM33.5 37.9998V31.9998H41.5C42.2956 31.9998 43.0587 32.3158 43.6213 32.8785C44.1839 33.4411 44.5 34.2041 44.5 34.9998V37.9998H33.5Z" fill="white"/>
</g>
<defs>
<clipPath id="clip0_1253_5643">
<rect width="32" height="32" fill="white" transform="translate(16.5 16)"/>
</clipPath>
</defs>
</svg>
