<svg width="65" height="64" viewBox="0 0 65 64" fill="none" xmlns="http://www.w3.org/2000/svg">
<rect x="0.5" width="64" height="64" rx="32" fill="#006837"/>
<g clip-path="url(#clip0_1613_5824)">
<path d="M46.5 46H44.5V41C44.4985 39.6744 43.9712 38.4035 43.0339 37.4661C42.0965 36.5288 40.8256 36.0015 39.5 36V34C41.3559 34.0021 43.1352 34.7402 44.4475 36.0525C45.7598 37.3648 46.4979 39.1441 46.5 41V46Z" fill="white"/>
<path d="M38.5 46H36.5V41C36.4984 39.6744 35.9712 38.4035 35.0338 37.4662C34.0965 36.5288 32.8256 36.0016 31.5 36H25.5C24.1744 36.0016 22.9035 36.5288 21.9662 37.4662C21.0288 38.4035 20.5016 39.6744 20.5 41V46H18.5V41C18.5022 39.1442 19.2404 37.3649 20.5526 36.0526C21.8649 34.7404 23.6442 34.0022 25.5 34H31.5C33.3558 34.0022 35.1351 34.7404 36.4474 36.0526C37.7596 37.3649 38.4978 39.1442 38.5 41V46Z" fill="white"/>
<path d="M36.5 18V20C37.8261 20 39.0979 20.5268 40.0355 21.4645C40.9732 22.4021 41.5 23.6739 41.5 25C41.5 26.3261 40.9732 27.5979 40.0355 28.5355C39.0979 29.4732 37.8261 30 36.5 30V32C38.3565 32 40.137 31.2625 41.4497 29.9497C42.7625 28.637 43.5 26.8565 43.5 25C43.5 23.1435 42.7625 21.363 41.4497 20.0503C40.137 18.7375 38.3565 18 36.5 18Z" fill="white"/>
<path d="M28.5 20C29.4889 20 30.4556 20.2932 31.2779 20.8427C32.1001 21.3921 32.741 22.173 33.1194 23.0866C33.4978 24.0002 33.5969 25.0055 33.4039 25.9755C33.211 26.9454 32.7348 27.8363 32.0355 28.5355C31.3363 29.2348 30.4454 29.711 29.4755 29.9039C28.5055 30.0969 27.5002 29.9978 26.5866 29.6194C25.673 29.241 24.8921 28.6001 24.3427 27.7779C23.7932 26.9556 23.5 25.9889 23.5 25C23.5 23.6739 24.0268 22.4021 24.9645 21.4645C25.9022 20.5268 27.1739 20 28.5 20ZM28.5 18C27.1155 18 25.7622 18.4105 24.611 19.1797C23.4599 19.9489 22.5627 21.0421 22.0328 22.3212C21.503 23.6003 21.3644 25.0078 21.6345 26.3656C21.9046 27.7235 22.5713 28.9708 23.5503 29.9497C24.5292 30.9287 25.7765 31.5954 27.1344 31.8655C28.4922 32.1356 29.8997 31.997 31.1788 31.4672C32.4579 30.9373 33.5511 30.0401 34.3203 28.889C35.0895 27.7378 35.5 26.3845 35.5 25C35.5 23.1435 34.7625 21.363 33.4497 20.0503C32.137 18.7375 30.3565 18 28.5 18Z" fill="white"/>
</g>
<defs>
<clipPath id="clip0_1613_5824">
<rect width="32" height="32" fill="white" transform="translate(16.5 16)"/>
</clipPath>
</defs>
</svg>
