<svg width="20" height="20" viewBox="0 0 20 20" fill="none" xmlns="http://www.w3.org/2000/svg">
<g clip-path="url(#clip0_1473_96)">
<path d="M6.25 18.75C6.94036 18.75 7.5 18.1904 7.5 17.5C7.5 16.8096 6.94036 16.25 6.25 16.25C5.55964 16.25 5 16.8096 5 17.5C5 18.1904 5.55964 18.75 6.25 18.75Z" fill="#033F62"/>
<path d="M15 18.75C15.6904 18.75 16.25 18.1904 16.25 17.5C16.25 16.8096 15.6904 16.25 15 16.25C14.3096 16.25 13.75 16.8096 13.75 17.5C13.75 18.1904 14.3096 18.75 15 18.75Z" fill="#033F62"/>
<path d="M17.5 4.37488H3.6375L3.125 1.74988C3.09578 1.60659 3.01724 1.47807 2.90304 1.38671C2.78884 1.29535 2.64622 1.24693 2.5 1.24988H0V2.49988H1.9875L4.375 14.4999C4.40422 14.6432 4.48276 14.7717 4.59696 14.8631C4.71116 14.9544 4.85378 15.0028 5 14.9999H16.25V13.7499H5.5125L5 11.2499H16.25C16.3945 11.2534 16.5357 11.2068 16.6497 11.1179C16.7636 11.029 16.8432 10.9034 16.875 10.7624L18.125 5.13738C18.1459 5.04465 18.1455 4.94836 18.1236 4.85584C18.1017 4.76332 18.059 4.67702 17.9987 4.60349C17.9385 4.52996 17.8622 4.47115 17.7758 4.43154C17.6894 4.39192 17.595 4.37255 17.5 4.37488ZM15.75 9.99988H4.7625L3.8875 5.62488H16.7188L15.75 9.99988Z" fill="#033F62"/>
</g>
<defs>
<clipPath id="clip0_1473_96">
<rect width="20" height="20" fill="white"/>
</clipPath>
</defs>
</svg>
