<svg width="24" height="24" viewBox="0 0 24 24" fill="none" xmlns="http://www.w3.org/2000/svg">
<g id="phone--voice 1" clip-path="url(#clip0_1365_3986)">
<path id="Vector" d="M18 9.75H16.5C16.4993 9.15346 16.2621 8.58155 15.8403 8.15973C15.4185 7.73792 14.8465 7.50066 14.25 7.5V6C15.2442 6.00113 16.1974 6.39658 16.9004 7.0996C17.6034 7.80262 17.9989 8.75579 18 9.75Z" fill="#FAFDFF"/>
<path id="Vector_2" d="M21 9.75H19.5C19.4985 8.35809 18.9448 7.02363 17.9606 6.0394C16.9764 5.05517 15.6419 4.50155 14.25 4.5V3C16.0396 3.00199 17.7553 3.71378 19.0208 4.97922C20.2862 6.24466 20.998 7.9604 21 9.75Z" fill="#FAFDFF"/>
<path id="Vector_3" d="M19.5 21.75H19.3725C4.63503 20.9025 2.54253 8.4675 2.25003 4.6725C2.22738 4.37789 2.26297 4.08171 2.35478 3.80086C2.44659 3.52 2.59282 3.25998 2.78513 3.03565C2.97743 2.81131 3.21203 2.62705 3.47555 2.49338C3.73906 2.35971 4.02632 2.27925 4.32093 2.2566C4.38033 2.2522 4.44003 2.25 4.50003 2.25H8.45253C8.75295 2.24971 9.04653 2.33963 9.29526 2.50812C9.54398 2.67661 9.73638 2.9159 9.84753 3.195L10.9875 6C11.0973 6.27266 11.1245 6.57156 11.0659 6.85957C11.0072 7.14758 10.8652 7.412 10.6575 7.62L9.06003 9.2325C9.30855 10.651 9.98732 11.9587 11.0043 12.9784C12.0212 13.998 13.3272 14.6802 14.745 14.9325L16.3725 13.32C16.5837 13.1146 16.8506 12.9759 17.14 12.9213C17.4294 12.8666 17.7285 12.8983 18 13.0125L20.8275 14.145C21.1024 14.2597 21.337 14.4536 21.5012 14.702C21.6655 14.9504 21.7521 15.2422 21.75 15.54V19.5C21.75 20.0967 21.513 20.669 21.091 21.091C20.6691 21.5129 20.0968 21.75 19.5 21.75ZM4.50003 3.75C4.40154 3.74969 4.30395 3.76877 4.21284 3.80617C4.12172 3.84357 4.03886 3.89855 3.969 3.96797C3.89913 4.03739 3.84362 4.1199 3.80564 4.21077C3.76766 4.30164 3.74795 4.39911 3.74763 4.4976C3.74763 4.51845 3.74843 4.53925 3.75003 4.56C4.09503 9 6.30753 19.5 19.455 20.25C19.5533 20.2559 19.6519 20.2424 19.745 20.2102C19.838 20.1781 19.9239 20.1279 19.9976 20.0625C20.0713 19.9972 20.1314 19.918 20.1745 19.8294C20.2176 19.7409 20.2428 19.6447 20.2487 19.5464C20.2496 19.5309 20.25 19.5154 20.25 19.5V15.54L17.4225 14.4075L15.27 16.545L14.91 16.5C8.38503 15.6825 7.50003 9.1575 7.50003 9.09L7.45503 8.73L9.58503 6.5775L8.46003 3.75H4.50003Z" fill="#FAFDFF"/>
</g>
<defs>
<clipPath id="clip0_1365_3986">
<rect width="24" height="24" fill="white"/>
</clipPath>
</defs>
</svg>
