<svg width="20" height="20" viewBox="0 0 20 20" fill="none" xmlns="http://www.w3.org/2000/svg">
<g clip-path="url(#clip0_1473_93)">
<path d="M18.125 17.2411L13.405 12.521C14.5392 11.1594 15.1047 9.41288 14.984 7.64485C14.8633 5.87682 14.0657 4.22339 12.7569 3.02851C11.4482 1.83363 9.72922 1.1893 7.95753 1.22956C6.18584 1.26982 4.49788 1.99157 3.24479 3.24467C1.99169 4.49776 1.26994 6.18572 1.22968 7.95741C1.18942 9.7291 1.83375 11.4481 3.02863 12.7568C4.22351 14.0655 5.87695 14.8632 7.64498 14.9839C9.413 15.1046 11.1595 14.539 12.5212 13.4048L17.2412 18.1249L18.125 17.2411ZM2.50003 8.1249C2.50003 7.01238 2.82993 5.92485 3.44801 4.99982C4.06609 4.0748 4.9446 3.35382 5.97243 2.92808C7.00027 2.50234 8.13127 2.39094 9.22241 2.60799C10.3136 2.82503 11.3158 3.36076 12.1025 4.14743C12.8892 4.9341 13.4249 5.93638 13.6419 7.02752C13.859 8.11866 13.7476 9.24966 13.3218 10.2775C12.8961 11.3053 12.1751 12.1838 11.2501 12.8019C10.3251 13.42 9.23755 13.7499 8.12503 13.7499C6.63369 13.7483 5.20391 13.1551 4.14938 12.1006C3.09484 11.046 2.50168 9.61624 2.50003 8.1249Z" fill="#033F62"/>
</g>
<defs>
<clipPath id="clip0_1473_93">
<rect width="20" height="20" fill="white"/>
</clipPath>
</defs>
</svg>
